# xmcd CD database file
#
# Track frame offsets:
#	150
#	15550
#	32935
#	47457
#	62090
#	78619
#	99029
#	118005
#	134279
#	151603
#	169227
#	189339
#	207713
#	223651
#
# Disc length: 3253 seconds
#
# Revision: 0
# Processed by: cddbd v1.5.2PL0 Copyright (c) Steve Scherf et al.
# Submitted via: CDex 1.51
#
DISCID=b90cb30e
DTITLE=Relax Music Voyage - Meditation
DYEAR=2011
DGENRE=New Age
TTITLE0=Aroma
TTITLE1=Aqua
TTITLE2=Arm Of The Swan
TTITLE3=Orion
TTITLE4=Moon Madness
TTITLE5=Oberon
TTITLE6=Daran
TTITLE7=Kentaurus
TTITLE8=Lutos
TTITLE9=Ferengi
TTITLE10=In Your Eyes
TTITLE11=Octopus
TTITLE12=Kardassa
TTITLE13=Always In Van
EXTD=YEAR: 2011
EXTT0=
EXTT1=
EXTT2=
EXTT3=
EXTT4=
EXTT5=
EXTT6=
EXTT7=
EXTT8=
EXTT9=
EXTT10=
EXTT11=
EXTT12=
EXTT13=
PLAYORDER=
